#N canvas 141 223 1179 451 10;
#X obj 224 29 inlet~;
#X obj 215 384 outlet~;
#X obj 419 88 line;
#X obj 422 109 hsl 128 15 50 10000 0 0 empty empty empty -2 -8 0 10
-262144 -1 -1 893 1;
#X floatatom 419 127 5 0 0 0 - - -, f 5;
#X obj 322 248 line;
#X obj 325 269 hsl 128 15 50 10000 0 0 empty empty empty -2 -8 0 10
-262144 -1 -1 0 1;
#X floatatom 322 289 5 0 0 0 - - -, f 5;
#X obj 301 150 r F1-1a;
#X obj 301 170 unpack f f f;
#X floatatom 389 195 5 0 0 0 - - -, f 5;
#X floatatom 347 196 5 0 0 0 - - -, f 5;
#X floatatom 280 194 5 0 0 0 - - -, f 5;
#X msg 1002 378 \; F1-1c 7000 2000 3.5 \;;
#X msg 948 309 \; F1-1a 100 1000 3 \;;
#X msg 951 72 \; F1-1a 1760 1000 0.1 \;;
#X obj 764 285 vu 15 120 empty empty -1 -8 0 10 -66577 -1 1 0;
#X obj 764 240 env~;
#X obj 763 261 - 100;
#X obj 228 164 *~;
#X obj 235 352 hip~ 150;
#X obj 237 90 r pb1-1, f 8;
#X msg 952 143 \; F1-1a 1760 10000 3 \;;
#X obj 244 133 hsl 30 15 0 1 0 0 empty empty empty -2 -8 0 10 -262144
-1 -1 2900 1;
#X obj 237 111 line;
#X obj 233 265 vcf_rbp8~;
#X obj 696 23 r freq1;
#X floatatom 696 45 5 0 0 0 - - -, f 5;
#X obj 694 139 s F1-1a;
#X obj 694 117 pack f 100 f;
#X msg 950 8 \; F1-1a 440 1000 8 \; pb1-1 1 \;;
#X obj 696 63 * 50;
#X obj 742 94 / 3;
#X obj 577 229 s F1-1rs;
#X connect 0 0 19 0;
#X connect 2 0 3 0;
#X connect 3 0 4 0;
#X connect 3 0 25 1;
#X connect 5 0 6 0;
#X connect 6 0 7 0;
#X connect 6 0 25 2;
#X connect 8 0 9 0;
#X connect 9 0 12 0;
#X connect 9 0 2 0;
#X connect 9 0 33 0;
#X connect 9 1 5 1;
#X connect 9 1 11 0;
#X connect 9 1 2 1;
#X connect 9 2 10 0;
#X connect 9 2 5 0;
#X connect 17 0 18 0;
#X connect 18 0 16 0;
#X connect 19 0 25 0;
#X connect 20 0 1 0;
#X connect 21 0 24 0;
#X connect 23 0 19 1;
#X connect 24 0 23 0;
#X connect 25 0 20 0;
#X connect 26 0 27 0;
#X connect 27 0 31 0;
#X connect 27 0 32 0;
#X connect 29 0 28 0;
#X connect 31 0 29 0;
#X connect 32 0 29 2;
