#N canvas 217 23 1219 507 10;
#X obj 98 11 inlet~;
#X obj 116 258 outlet~;
#X obj 226 94 line;
#X obj 229 115 hsl 128 15 50 10000 0 0 empty empty empty -2 -8 0 10
-262144 -1 -1 1595 1;
#X floatatom 226 135 5 0 0 0 - - -, f 5;
#X obj 385 163 line;
#X obj 203 186 hsl 128 15 5 10000 0 0 empty empty empty -2 -8 0 10
-262144 -1 -1 0 1;
#X floatatom 200 206 5 0 0 0 - - -, f 5;
#X obj 285 34 unpack f f f;
#X floatatom 297 90 5 0 0 0 - - -, f 5;
#X floatatom 211 49 5 0 0 0 - - -, f 5;
#X obj 285 14 r F1-2a;
#X floatatom 408 81 5 0 0 0 - - -, f 5;
#X msg 999 218 \; F1-2c 7000 2000 100 \;;
#X obj 103 154 *~;
#X obj 116 215 hip~ 150;
#X obj 116 192 vcf_rbp8~;
#X msg 1004 149 \; F1-2a 700 1000 7 \;;
#X obj 124 109 hsl 30 15 0 1 0 0 empty empty empty -2 -8 0 10 -262144
-1 -1 2900 1;
#X obj 120 130 line;
#X obj 121 88 r pb1-2, f 8;
#X msg 1006 83 \; F1-2a 137 5000 4 \;;
#X floatatom 696 45 5 0 0 0 - - -, f 5;
#X obj 694 117 pack f 100 f;
#X obj 696 23 r freq2;
#X obj 694 139 s F1-2a;
#X obj 696 63 * 50;
#X obj 742 94 / 4;
#X obj 318 278 s F1-2rs;
#X connect 0 0 14 0;
#X connect 2 0 3 0;
#X connect 3 0 4 0;
#X connect 3 0 16 1;
#X connect 5 0 6 0;
#X connect 6 0 7 0;
#X connect 6 0 16 2;
#X connect 8 0 10 0;
#X connect 8 0 2 0;
#X connect 8 0 28 0;
#X connect 8 1 9 0;
#X connect 8 1 2 1;
#X connect 8 1 5 1;
#X connect 8 2 12 0;
#X connect 8 2 5 0;
#X connect 11 0 8 0;
#X connect 14 0 16 0;
#X connect 15 0 1 0;
#X connect 16 0 15 0;
#X connect 18 0 19 0;
#X connect 19 0 14 1;
#X connect 20 0 18 0;
#X connect 22 0 26 0;
#X connect 22 0 27 0;
#X connect 23 0 25 0;
#X connect 24 0 22 0;
#X connect 26 0 23 0;
#X connect 27 0 23 2;
