#N canvas 35 77 1314 596 10;
#X obj 101 18 inlet~;
#X obj 105 441 outlet~;
#X obj 179 84 line;
#X obj 182 105 hsl 128 15 50 10000 0 0 empty empty empty -2 -8 0 10
-262144 -1 -1 1851 1;
#X floatatom 179 125 5 0 0 0 - - -, f 5;
#X obj 189 348 line;
#X obj 192 369 hsl 128 15 50 10000 0 0 empty empty empty -2 -8 0 10
-262144 -1 -1 0 1;
#X floatatom 189 389 5 0 0 0 - - -, f 5;
#X obj 187 181 unpack f f f;
#X floatatom 233 207 5 0 0 0 - - -, f 5;
#X floatatom 166 205 5 0 0 0 - - -, f 5;
#X floatatom 281 206 5 0 0 0 - - -, f 5;
#X obj 187 156 r F2-1a;
#X msg 999 218 \; F2-1b 10000 2000 10000 \;;
#X obj 106 184 *~;
#X msg 1004 63 \; F2-1b 1300 1000 0.001 \;;
#X obj 106 400 hip~ 150;
#X obj 105 375 vcf_rbp8~;
#X msg 1002 149 \; F2-1a 880 1000 5 \;;
#X obj 114 114 r pb2-1, f 8;
#X obj 130 162 hsl 30 15 0 1 0 0 empty empty empty -2 -8 0 10 -262144
-1 -1 2900 1;
#X obj 127 143 line;
#X floatatom 696 45 5 0 0 0 - - -, f 5;
#X obj 694 117 pack f 100 f;
#X obj 696 23 r freq3;
#X obj 694 139 s F2-1a;
#X obj 696 63 * 50;
#X obj 742 94 / 5;
#X obj 703 216 s F2-1rs;
#X connect 0 0 14 0;
#X connect 2 0 3 0;
#X connect 3 0 4 0;
#X connect 3 0 17 1;
#X connect 5 0 6 0;
#X connect 6 0 7 0;
#X connect 6 0 17 2;
#X connect 8 0 10 0;
#X connect 8 0 2 0;
#X connect 8 0 28 0;
#X connect 8 1 9 0;
#X connect 8 1 2 1;
#X connect 8 1 5 1;
#X connect 8 2 11 0;
#X connect 8 2 5 0;
#X connect 12 0 8 0;
#X connect 14 0 17 0;
#X connect 16 0 1 0;
#X connect 17 0 16 0;
#X connect 19 0 21 0;
#X connect 20 0 14 1;
#X connect 21 0 20 0;
#X connect 22 0 26 0;
#X connect 22 0 27 0;
#X connect 23 0 25 0;
#X connect 24 0 22 0;
#X connect 26 0 23 0;
#X connect 27 0 23 2;
