#N canvas 112 247 1328 626 10;
#X obj 101 18 inlet~;
#X obj 96 469 outlet~;
#X obj 179 84 line;
#X obj 182 105 hsl 128 15 50 10000 0 0 empty empty empty -2 -8 0 10
-262144 -1 -1 2680 1;
#X floatatom 179 125 5 0 0 0 - - -, f 5;
#X obj 180 376 line;
#X obj 183 397 hsl 128 15 50 10000 0 0 empty empty empty -2 -8 0 10
-262144 -1 -1 0 1;
#X floatatom 180 417 5 0 0 0 - - -, f 5;
#X obj 176 218 unpack f f f;
#X floatatom 222 244 5 0 0 0 - - -, f 5;
#X floatatom 155 242 5 0 0 0 - - -, f 5;
#X floatatom 270 243 5 0 0 0 - - -, f 5;
#X obj 176 193 r F2-2a;
#X msg 994 70 \; F2-2a 1370 1000 0.0001 \;;
#X obj 99 238 *~;
#X obj 108 433 hip~ 150;
#X obj 96 403 vcf_rbp8~;
#X obj 474 169 vu 15 120 empty empty -1 -8 0 10 -66577 -1 1 0;
#X obj 469 122 env~;
#X obj 473 145 - 100;
#X msg 999 218 \; F2-2a 880 2000 3 \;;
#X obj 113 162 r pb2-2, f 8;
#X msg 791 300 \; F2-2a 8800 10000 4 \;;
#X msg 662 453 \; pa2-2 1 4000 \; pb2-2 0 4000 \;;
#X msg 474 432 \; pb2-2 0 4000 \;;
#X obj 116 203 hsl 30 15 0 1 0 0 empty empty empty -2 -8 0 10 -262144
-1 -1 2900 1;
#X obj 113 182 line;
#X msg 945 149 \; F2-2a 1760 1000 13 \;;
#X floatatom 696 45 5 0 0 0 - - -, f 5;
#X obj 694 117 pack f 100 f;
#X obj 696 23 r freq4;
#X obj 694 139 s F2-2a;
#X obj 696 63 * 50;
#X obj 742 94 / 6;
#X obj 534 87 s F2-2rs;
#X connect 0 0 14 0;
#X connect 0 0 18 0;
#X connect 2 0 3 0;
#X connect 3 0 4 0;
#X connect 3 0 16 1;
#X connect 5 0 6 0;
#X connect 6 0 7 0;
#X connect 6 0 16 2;
#X connect 8 0 10 0;
#X connect 8 0 2 0;
#X connect 8 0 34 0;
#X connect 8 1 9 0;
#X connect 8 1 2 1;
#X connect 8 1 5 1;
#X connect 8 2 11 0;
#X connect 8 2 5 0;
#X connect 12 0 8 0;
#X connect 14 0 16 0;
#X connect 15 0 1 0;
#X connect 16 0 15 0;
#X connect 18 0 19 0;
#X connect 19 0 17 0;
#X connect 21 0 26 0;
#X connect 25 0 14 1;
#X connect 26 0 25 0;
#X connect 28 0 32 0;
#X connect 28 0 33 0;
#X connect 29 0 31 0;
#X connect 30 0 28 0;
#X connect 32 0 29 0;
#X connect 33 0 29 2;
