#N canvas 71 38 1346 628 10;
#X obj 101 18 inlet~;
#X obj 101 484 outlet~;
#X obj 179 84 line;
#X obj 182 105 hsl 128 15 50 10000 0 0 empty empty empty -2 -8 0 10
-262144 -1 -1 0 1;
#X floatatom 179 125 5 0 0 0 - - -, f 5;
#X obj 185 391 line;
#X obj 188 412 hsl 128 15 50 10000 0 0 empty empty empty -2 -8 0 10
-262144 -1 -1 0 1;
#X floatatom 185 432 5 0 0 0 - - -, f 5;
#X obj 176 218 unpack f f f;
#X floatatom 222 244 5 0 0 0 - - -, f 5;
#X floatatom 155 242 5 0 0 0 - - -, f 5;
#X floatatom 270 243 5 0 0 0 - - -, f 5;
#X msg 1029 366 \; F3-1c 7000 2000 3.5 \;;
#X obj 105 415 hip~ 150;
#X msg 1011 286 \; F3-1a 440 1000 2 \;;
#X msg 1007 219 \; F3-1a 440 1000 4 \;;
#X msg 1003 149 \; F3-1a 440 1000 4 \;;
#X obj 102 236 *~;
#X obj 115 348 vcf_rbp8~;
#X obj 113 175 r pb3-1, f 8;
#X obj 115 217 hsl 30 15 0 1 0 0 empty empty empty -2 -8 0 10 -262144
-1 -1 2900 1;
#X obj 113 196 line;
#X msg 984 68 \; F3-1a 1320 1000 10 \;;
#X floatatom 696 45 5 0 0 0 - - -, f 5;
#X obj 694 117 pack f 100 f;
#X obj 694 139 s F3-1a;
#X obj 696 63 * 50;
#X obj 696 23 r freq1;
#X obj 742 94 / 4;
#X obj 176 193 r F3-1a;
#X obj 295 287 s F1-1c5;
#X connect 0 0 17 0;
#X connect 2 0 3 0;
#X connect 3 0 4 0;
#X connect 3 0 18 1;
#X connect 5 0 6 0;
#X connect 6 0 7 0;
#X connect 6 0 18 2;
#X connect 8 0 10 0;
#X connect 8 0 2 0;
#X connect 8 0 30 0;
#X connect 8 1 9 0;
#X connect 8 1 2 1;
#X connect 8 1 5 1;
#X connect 8 2 11 0;
#X connect 8 2 5 0;
#X connect 13 0 1 0;
#X connect 17 0 18 0;
#X connect 18 0 13 0;
#X connect 19 0 21 0;
#X connect 20 0 17 1;
#X connect 21 0 20 0;
#X connect 23 0 26 0;
#X connect 23 0 28 0;
#X connect 24 0 25 0;
#X connect 26 0 24 0;
#X connect 27 0 23 0;
#X connect 28 0 24 2;
#X connect 29 0 8 0;
