#N canvas 147 39 1293 606 10;
#X obj 101 18 inlet~;
#X obj 94 484 outlet~;
#X obj 179 84 line;
#X obj 182 105 hsl 128 15 50 10000 0 0 empty empty empty -2 -8 0 10
-262144 -1 -1 0 1;
#X floatatom 179 125 5 0 0 0 - - -, f 5;
#X obj 178 391 line;
#X obj 181 412 hsl 128 15 50 10000 0 0 empty empty empty -2 -8 0 10
-262144 -1 -1 0 1;
#X floatatom 178 432 5 0 0 0 - - -, f 5;
#X obj 176 218 unpack f f f;
#X floatatom 222 244 5 0 0 0 - - -, f 5;
#X floatatom 155 242 5 0 0 0 - - -, f 5;
#X floatatom 270 243 5 0 0 0 - - -, f 5;
#X obj 176 193 r F3-2a;
#X msg 979 227 \; F3-2a 7000 2000 0.001 \;;
#X obj 99 256 *~;
#X obj 102 445 hip~ 150;
#X obj 94 418 vcf_rbp8~;
#X msg 946 147 \; F3-2a 392 1000 10 \;;
#X obj 111 181 r pb3-2, f 8;
#X obj 117 212 line;
#X obj 119 233 hsl 30 15 0 1 0 0 empty empty empty -2 -8 0 10 -262144
-1 -1 2900 1;
#X floatatom 696 45 5 0 0 0 - - -, f 5;
#X obj 694 117 pack f 100 f;
#X obj 694 139 s F3-2a;
#X obj 742 94 / 3;
#X obj 696 63 * 50;
#X obj 696 23 r freq2;
#X obj 350 260 s F2-1c6;
#X connect 0 0 14 0;
#X connect 2 0 3 0;
#X connect 3 0 4 0;
#X connect 3 0 16 1;
#X connect 5 0 6 0;
#X connect 6 0 7 0;
#X connect 6 0 16 2;
#X connect 8 0 10 0;
#X connect 8 0 2 0;
#X connect 8 0 27 0;
#X connect 8 1 9 0;
#X connect 8 1 5 1;
#X connect 8 1 2 1;
#X connect 8 2 11 0;
#X connect 8 2 5 0;
#X connect 12 0 8 0;
#X connect 14 0 16 0;
#X connect 15 0 1 0;
#X connect 16 0 15 0;
#X connect 18 0 19 0;
#X connect 19 0 20 0;
#X connect 20 0 14 1;
#X connect 21 0 24 0;
#X connect 21 0 25 0;
#X connect 22 0 23 0;
#X connect 24 0 22 2;
#X connect 25 0 22 0;
#X connect 26 0 21 0;
