#N canvas 422 147 697 536 12;
#X obj 94 188 *~;
#X obj 136 188 line~;
#X obj 18 179 cos~;
#X obj 18 154 +~;
#X obj 136 165 pack 0 50;
#X floatatom 136 117 0 0 0 0 - - -;
#X obj 136 141 / 100;
#X obj 18 129 phasor~;
#X obj 17 253 hip~;
#X obj 93 133 osc~;
#X text 174 61 index (x100);
#X text 43 3 SPECTRUM OF TWO-OPERATOR PHASE MODULATION;
#X floatatom 18 58 7 0 1500 0 - - -, f 7;
#X obj 18 105 *;
#X obj 18 327 outlet~;
#X obj 18 33 inlet;
#X obj 96 83 inlet;
#X obj 165 93 inlet;
#X floatatom 90 107 5 0 0 0 - - -, f 5;
#X obj 18 297 *~;
#X obj 52 285 line;
#X floatatom 96 278 5 0 0 0 - - -, f 5;
#X text 63 37 carrier;
#X text 100 60 modulant;
#X obj 96 256 r vFM7;
#X connect 0 0 3 1;
#X connect 1 0 0 1;
#X connect 2 0 8 0;
#X connect 3 0 2 0;
#X connect 4 0 1 0;
#X connect 5 0 6 0;
#X connect 6 0 4 0;
#X connect 7 0 3 0;
#X connect 8 0 19 0;
#X connect 9 0 0 0;
#X connect 12 0 13 0;
#X connect 13 0 7 0;
#X connect 15 0 12 0;
#X connect 16 0 13 1;
#X connect 16 0 18 0;
#X connect 17 0 5 0;
#X connect 18 0 9 0;
#X connect 19 0 14 0;
#X connect 20 0 19 1;
#X connect 24 0 20 0;
#X connect 24 0 21 0;
