#N canvas 511 23 833 605 10;
#X obj 74 91 inlet~;
#X obj 205 135 env~ 1024;
#X floatatom 206 164 5 0 0 0 - - -, f 5;
#X obj 204 195 moses;
#X obj 205 221 bng 15 250 50 0 empty empty empty 17 7 0 10 -262144
-1 -1;
#X floatatom 249 222 5 0 0 0 - - -, f 5;
#X obj 248 245 expr (($f1 - $f3) / $f2) - $f1 + $f3;
#X obj 372 121 loadbang;
#X msg 372 151 10;
#X floatatom 372 180 5 0 0 0 - - -, f 5;
#X floatatom 499 124 5 0 0 0 - - -, f 5;
#X text 500 104 threshold reference;
#X floatatom 248 282 5 0 0 0 - - -, f 5;
#X obj 248 305 expr 100 + $f1;
#X floatatom 248 330 5 0 0 0 - - -, f 5;
#X obj 247 357 dbtorms;
#X floatatom 247 381 5 0 0 0 - - -, f 5;
#X msg 204 361 1;
#X floatatom 40 214 5 0 0 0 - - -, f 5;
#X text 85 215 forward control;
#X msg 88 385 \$1 20;
#X msg 86 417 \$1 20;
#X obj 84 445 line~;
#X obj 64 480 *~;
#X obj 64 514 outlet~;
#X obj 506 68 r ThreshRefOfm2;
#X obj 42 194 r ForwCtrlOfm2;
#X obj 33 136 delwrite~ compOfm2 100;
#X obj 42 243 delread~ compOfm2;
#X connect 0 0 1 0;
#X connect 0 0 27 0;
#X connect 1 0 2 0;
#X connect 2 0 3 0;
#X connect 3 0 4 0;
#X connect 3 1 5 0;
#X connect 4 0 17 0;
#X connect 5 0 6 0;
#X connect 6 0 12 0;
#X connect 7 0 8 0;
#X connect 8 0 9 0;
#X connect 9 0 6 1;
#X connect 10 0 3 1;
#X connect 10 0 6 2;
#X connect 12 0 13 0;
#X connect 13 0 14 0;
#X connect 14 0 15 0;
#X connect 15 0 16 0;
#X connect 16 0 21 0;
#X connect 17 0 20 0;
#X connect 18 0 28 0;
#X connect 20 0 22 0;
#X connect 21 0 22 0;
#X connect 22 0 23 1;
#X connect 23 0 24 0;
#X connect 25 0 10 0;
#X connect 26 0 18 0;
#X connect 28 0 23 0;
